<svg width="20" height="30" viewBox="0 0 20 30" fill="none" xmlns="http://www.w3.org/2000/svg">
<path d="M10 15C10 14.0111 10.2932 13.0444 10.8427 12.2221C11.3921 11.3999 12.173 10.759 13.0866 10.3806C14.0002 10.0022 15.0055 9.90315 15.9754 10.0961C16.9454 10.289 17.8363 10.7652 18.5355 11.4645C19.2348 12.1637 19.711 13.0546 19.9039 14.0245C20.0968 14.9945 19.9978 15.9998 19.6194 16.9134C19.241 17.827 18.6001 18.6079 17.7778 19.1573C16.9556 19.7068 15.9889 20 15 20C13.6739 20 12.4021 19.4732 11.4645 18.5355C10.5268 17.5979 10 16.3261 10 15ZM0 25C0 23.6739 0.526784 22.4021 1.46447 21.4645C2.40215 20.5268 3.67392 20 5 20H10V25C10 26.3261 9.47321 27.5979 8.53553 28.5355C7.59785 29.4732 6.32608 30 5 30C3.67392 30 2.40215 29.4732 1.46447 28.5355C0.526784 27.5979 0 26.3261 0 25ZM10 0V10H15C16.3261 10 17.5978 9.47322 18.5355 8.53553C19.4732 7.59785 20 6.32608 20 5C20 3.67392 19.4732 2.40215 18.5355 1.46447C17.5978 0.526784 16.3261 0 15 0L10 0ZM0 5C0 6.32608 0.526784 7.59785 1.46447 8.53553C2.40215 9.47322 3.67392 10 5 10H10V0H5C3.67392 0 2.40215 0.526784 1.46447 1.46447C0.526784 2.40215 0 3.67392 0 5ZM0 15C0 16.3261 0.526784 17.5979 1.46447 18.5355C2.40215 19.4732 3.67392 20 5 20H10V10H5C3.67392 10 2.40215 10.5268 1.46447 11.4645C0.526784 12.4021 0 13.6739 0 15Z" fill="#3D3D3D"/>
</svg>
