<svg width="30" height="30" viewBox="0 0 30 30" fill="none" xmlns="http://www.w3.org/2000/svg">
<path d="M0 0H30V30H0V0ZM27.5425 22.845C27.3233 21.4767 26.4325 20.3258 23.7925 19.2542C22.8758 18.8233 21.85 18.5225 21.5425 17.8292C21.4337 17.548 21.4137 17.2404 21.485 16.9475C21.552 16.7666 21.6549 16.601 21.7874 16.4608C21.92 16.3206 22.0795 16.2086 22.2564 16.1315C22.4333 16.0545 22.6239 16.014 22.8168 16.0124C23.0098 16.0109 23.2011 16.0483 23.3792 16.1225C23.6502 16.2137 23.8989 16.361 24.1092 16.5549C24.3194 16.7487 24.4864 16.9847 24.5992 17.2475C25.8917 16.4025 25.8917 16.4025 26.7925 15.8417C26.5877 15.4889 26.3419 15.1616 26.06 14.8667C25.6112 14.3899 25.0571 14.0247 24.442 13.8003C23.8269 13.5759 23.1679 13.4984 22.5175 13.5742L21.6358 13.685C20.8097 13.8689 20.0624 14.3083 19.5 14.9408C19.1718 15.3512 18.9294 15.8234 18.7872 16.3292C18.645 16.8351 18.606 17.3644 18.6724 17.8857C18.7387 18.407 18.9092 18.9096 19.1736 19.3637C19.4381 19.8178 19.7911 20.2142 20.2117 20.5292C21.9183 21.8042 24.4133 22.0842 24.7317 23.285C25.0317 24.7475 23.6442 25.2167 22.2742 25.0475C21.8099 24.9447 21.3734 24.7424 20.9947 24.4547C20.6161 24.167 20.3043 23.8006 20.0808 23.3808L17.7917 24.6925C18.0477 25.2088 18.3901 25.6775 18.8042 26.0783C20.9792 28.2733 26.4167 28.1617 27.3925 24.8233C27.5932 24.154 27.625 23.4454 27.485 22.7608L27.5425 22.845ZM16.3133 13.7883H13.5C13.5 16.2108 13.4883 18.6217 13.4883 21.045C13.4883 22.585 13.5667 23.9992 13.3158 24.4333C12.9033 25.295 11.8408 25.1833 11.3583 25.0333C10.9085 24.7956 10.5453 24.4216 10.3208 23.965C10.2792 23.8765 10.2256 23.794 10.1617 23.72L7.885 25.1258C8.24139 25.9047 8.81635 26.5634 9.54 27.0217C10.7636 27.6927 12.1964 27.8735 13.5483 27.5275C14.0286 27.4094 14.4784 27.1912 14.8685 26.8872C15.2585 26.5832 15.5799 26.2002 15.8117 25.7633C16.4492 24.5967 16.3117 23.18 16.3117 21.5808C16.3267 19.0133 16.3117 16.445 16.3117 13.8567L16.3167 13.7867L16.3133 13.7883Z" fill="#3D3D3D"/>
</svg>
