<svg width="30" height="26" viewBox="0 0 30 26" fill="none" xmlns="http://www.w3.org/2000/svg">
<path d="M24.4973 8.4263C24.1806 8.32176 23.8643 8.22299 23.5482 8.12999C23.6007 7.9154 23.6482 7.7008 23.6949 7.4862C24.4156 4.02705 23.9448 1.24718 22.3417 0.33019C20.801 -0.546359 18.2871 0.364856 15.7449 2.55871C15.4949 2.7733 15.245 2.99946 15.0125 3.22643C14.8542 3.07539 14.69 2.92435 14.5259 2.77991C11.8595 0.435013 9.18898 -0.551311 7.58916 0.371459C6.05766 1.25379 5.60104 3.87105 6.24931 7.14367C6.31346 7.46887 6.38429 7.78746 6.46595 8.11266C6.09099 8.21748 5.72186 8.33304 5.37607 8.45519C2.24392 9.53313 0 11.2235 0 12.9766C0 14.7875 2.39057 16.6041 5.64187 17.706C5.90518 17.7927 6.16931 17.8802 6.43845 17.9536C6.35096 18.3019 6.2718 18.6445 6.20431 18.9985C5.58938 22.2175 6.06933 24.7762 7.60415 25.6494C9.18731 26.5573 11.8462 25.6263 14.4367 23.3805C14.6417 23.2005 14.8467 23.0148 15.0517 22.8176C15.3091 23.0652 15.5791 23.3054 15.8482 23.5373C18.3555 25.6742 20.831 26.5359 22.3625 25.6626C23.9457 24.7547 24.4598 22.012 23.7924 18.6692C23.7396 18.4139 23.681 18.1528 23.6165 17.8859C23.804 17.8339 23.9857 17.7753 24.1673 17.7209C27.5478 16.6124 30 14.8188 30 12.9791C30 11.221 27.6919 9.5125 24.5006 8.42961L24.4973 8.4263ZM16.574 3.49963C18.7537 1.61943 20.786 0.882367 21.7118 1.41061C22.7016 1.97351 23.0824 4.24825 22.4617 7.23694C22.4208 7.4342 22.3783 7.62569 22.3267 7.8147C21.0276 7.52323 19.7104 7.31781 18.3838 7.19979C17.6215 6.11794 16.7864 5.08828 15.8841 4.11784C16.1124 3.90324 16.3349 3.7002 16.5698 3.49716L16.574 3.49963ZM9.79558 15.9884C10.0947 16.4935 10.3988 16.9978 10.7213 17.4914C9.80691 17.3933 8.89828 17.2481 7.99911 17.0564C8.27309 16.1801 8.5918 15.3181 8.954 14.4738C9.22314 14.9847 9.49894 15.489 9.79141 15.9884H9.79558ZM8.02078 9.00654C8.86401 8.82083 9.76058 8.66979 10.6921 8.55424C10.3813 9.03626 10.0772 9.52901 9.78974 10.0284C9.50228 10.5277 9.22147 11.0262 8.9565 11.5371C8.58738 10.6722 8.27658 9.82532 8.01911 9.00654H8.02078ZM9.62643 13.0055C10.0131 12.2049 10.4347 11.4208 10.8763 10.649C11.3179 9.87731 11.802 9.1287 12.3061 8.39164C13.1852 8.32808 14.0809 8.29259 14.995 8.29259C15.9091 8.29259 16.8115 8.32726 17.6839 8.39164C18.1838 9.12292 18.6585 9.87154 19.1079 10.6375C19.5573 11.4034 19.9811 12.1851 20.3794 12.9824C19.9867 13.783 19.5648 14.5723 19.1137 15.3504C18.6688 16.1221 18.1971 16.8707 17.6972 17.6136C16.824 17.6771 15.9157 17.706 14.9967 17.706C14.0776 17.706 13.186 17.6771 12.3253 17.6235C11.8154 16.8867 11.3349 16.1323 10.8838 15.3603C10.433 14.5886 10.0164 13.8053 9.62393 13.0038L9.62643 13.0055ZM20.2086 15.9768C20.5077 15.4659 20.7919 14.9492 21.0643 14.4276C21.4383 15.2674 21.7687 16.1255 22.0542 16.9987C21.1468 17.2027 20.2289 17.3578 19.3045 17.4633C19.6153 16.9747 19.9145 16.4762 20.2069 15.9768H20.2086ZM21.0527 11.5371C20.7777 11.0262 20.4961 10.5153 20.2028 10.0168C19.9095 9.51828 19.6195 9.03626 19.3062 8.55424C20.2098 8.66406 21.1073 8.81916 21.9951 9.01892C21.7252 9.87433 21.4104 10.7152 21.0518 11.538L21.0527 11.5371ZM15.0125 5.00842C15.6277 5.67008 16.207 6.36355 16.7481 7.08589C15.5883 7.03389 14.4226 7.03389 13.2619 7.08589C13.8318 6.33728 14.4242 5.64066 15.01 5.00842H15.0125ZM8.21409 1.45105C9.19814 0.882367 11.3804 1.69866 13.686 3.71423C13.8326 3.84216 13.9793 3.98083 14.1309 4.12032C13.2244 5.09066 12.3849 6.12031 11.6179 7.20227C10.2938 7.31924 8.97869 7.52078 7.68081 7.80562C7.60499 7.50931 7.54 7.20805 7.47584 6.90596C6.92506 4.09968 7.28836 1.97847 8.21409 1.45105ZM6.77841 16.7486C6.52844 16.6792 6.2918 16.6033 6.05183 16.5224C4.72486 16.135 3.47589 15.5223 2.36057 14.7115C2.06822 14.5114 1.81988 14.2546 1.63055 13.9567C1.44121 13.6588 1.31483 13.3259 1.25903 12.9783C1.25903 11.916 3.11049 10.5582 5.78186 9.63548C6.11515 9.5191 6.45595 9.4151 6.79508 9.31606C7.19346 10.5756 7.673 11.8085 8.23075 13.0071C7.66715 14.2232 7.18179 15.4734 6.77758 16.7502L6.77841 16.7486ZM13.611 22.4362C12.6451 23.3134 11.525 24.0077 10.3064 24.4848C9.98531 24.6373 9.636 24.7227 9.28019 24.7356C8.92439 24.7485 8.56971 24.6887 8.23825 24.5599C7.30669 24.0259 6.92006 21.9773 7.44751 19.2206C7.51166 18.8954 7.58249 18.5702 7.66415 18.2516C8.97541 18.5311 10.3045 18.7211 11.642 18.8203C12.4167 19.9067 13.262 20.942 14.1726 21.9195C13.9851 22.0995 13.7985 22.2736 13.611 22.4362ZM15.0467 21.0257C14.4492 20.3877 13.8518 19.6795 13.2719 18.9193C13.8343 18.9424 14.4142 18.954 15 18.954C15.6033 18.954 16.1949 18.9424 16.7815 18.9135C16.2426 19.6482 15.6629 20.3533 15.0467 21.0257ZM22.7041 22.7664C22.6771 23.1185 22.5773 23.4613 22.4111 23.7737C22.2448 24.086 22.0156 24.3612 21.7376 24.5822C20.806 25.1162 18.8212 24.4171 16.6756 22.6013C16.4257 22.3925 16.1832 22.1663 15.9316 21.9336C16.8269 20.9542 17.653 19.9148 18.4038 18.8227C19.7497 18.7126 21.0862 18.509 22.4033 18.2136C22.4617 18.4513 22.515 18.6899 22.5617 18.9218C22.8478 20.1847 22.8975 21.489 22.7083 22.7697L22.7041 22.7664ZM23.7707 16.5274C23.604 16.5794 23.4424 16.6322 23.2707 16.6784C22.8577 15.4122 22.3585 14.1752 21.7767 12.9758C22.3369 11.7919 22.8165 10.5723 23.2124 9.32514C23.5174 9.4118 23.8099 9.50507 24.0915 9.59751C26.822 10.5261 28.7376 11.9086 28.7376 12.9634C28.7376 14.1008 26.6929 15.5691 23.7699 16.5265L23.7707 16.5274ZM14.9983 15.6574C15.529 15.6574 16.0477 15.5015 16.4889 15.2095C16.9302 14.9175 17.2741 14.5024 17.4771 14.0168C17.6802 13.5311 17.7333 12.9968 17.6298 12.4812C17.5263 11.9657 17.2708 11.4921 16.8955 11.1204C16.5203 10.7487 16.0422 10.4956 15.5218 10.3931C15.0013 10.2905 14.4618 10.3432 13.9716 10.5443C13.4813 10.7455 13.0623 11.0861 12.7675 11.5232C12.4727 11.9602 12.3153 12.4741 12.3153 12.9997C12.3153 13.7046 12.598 14.3806 13.1011 14.879C13.6043 15.3774 14.2867 15.6574 14.9983 15.6574Z" fill="#3D3D3D"/>
</svg>
