<svg width="30" height="30" viewBox="0 0 30 30" fill="none" xmlns="http://www.w3.org/2000/svg">
<path d="M0 15V30H30V0H0V15ZM24.1758 13.805C24.8945 13.9726 25.5473 14.3496 26.0517 14.8883C26.3304 15.1781 26.5719 15.5014 26.7708 15.8508C26.7808 15.8883 25.4758 16.7633 24.6875 17.2542C24.6583 17.2725 24.5433 17.1492 24.4158 16.9592C24.2716 16.7102 24.0666 16.5019 23.8201 16.3537C23.5735 16.2055 23.2933 16.1222 23.0058 16.1117C22.0958 16.0492 21.5108 16.5283 21.5158 17.3208C21.5075 17.5163 21.5516 17.7105 21.6433 17.8833C21.8433 18.3 22.2158 18.55 23.3808 19.05C25.53 19.975 26.4483 20.5833 27.02 21.45C27.341 21.9975 27.5384 22.6085 27.5984 23.2403C27.6584 23.8721 27.5796 24.5094 27.3675 25.1075C27.077 25.7639 26.6159 26.3304 26.0321 26.7481C25.4484 27.1658 24.7633 27.4194 24.0483 27.4825C23.2887 27.5705 22.5211 27.5629 21.7633 27.46C20.6021 27.2686 19.5325 26.7109 18.7108 25.8683C18.4006 25.519 18.138 25.13 17.93 24.7117C18.0166 24.6453 18.1086 24.5862 18.205 24.535C18.34 24.4592 18.8442 24.1675 19.32 23.8917L20.1825 23.3917L20.3642 23.6592C20.6674 24.0939 21.0533 24.4646 21.5 24.75C21.9521 24.9979 22.4642 25.1154 22.9792 25.0894C23.4942 25.0633 23.9918 24.8948 24.4167 24.6025C24.6362 24.3887 24.7732 24.1044 24.8037 23.7995C24.8342 23.4947 24.7561 23.1888 24.5833 22.9358C24.3508 22.6025 23.8742 22.3233 22.5225 21.7358C21.4628 21.3775 20.4979 20.7841 19.7 20C19.3191 19.5661 19.0378 19.0542 18.8758 18.5C18.7563 17.868 18.7386 17.2209 18.8233 16.5833C18.982 15.8505 19.3623 15.1842 19.9125 14.6749C20.4627 14.1655 21.1563 13.8377 21.8992 13.7358C22.6571 13.6435 23.4246 13.6659 24.1758 13.8025V13.805ZM17.1333 15.055L17.1433 16.2842H13.2375V27.3817H10.475V16.2867H6.5725V15.0833C6.56202 14.6705 6.57286 14.2575 6.605 13.8458C6.62 13.8258 8.99583 13.8158 11.8767 13.8208L17.1208 13.8358L17.1333 15.055Z" fill="#3D3D3D"/>
</svg>
