<svg width="35" height="35" viewBox="0 0 35 35" fill="none" xmlns="http://www.w3.org/2000/svg">
<path d="M34.876 17.4348C34.8754 14.1024 33.92 10.8401 32.1229 8.03383C30.3258 5.2276 27.7622 2.99506 24.7357 1.60049C21.7092 0.20592 18.3465 -0.292272 15.0457 0.16489C11.7449 0.622053 8.64413 2.01543 6.11058 4.18006C3.57703 6.34469 1.71676 9.18993 0.74999 12.3789C-0.21678 15.568 -0.249562 18.9672 0.655524 22.1743C1.56061 25.3814 3.36566 28.2619 5.85699 30.475C8.34832 32.6881 11.4216 34.141 14.713 34.6618V22.4758H10.283V17.4348H14.713V13.5928C14.713 9.22278 17.313 6.80878 21.299 6.80878C22.6055 6.82701 23.909 6.94065 25.199 7.14878V11.4348H22.999C22.6244 11.3851 22.2434 11.4204 21.8843 11.5379C21.5251 11.6554 21.197 11.8522 20.9242 12.1136C20.6514 12.3751 20.4409 12.6946 20.3083 13.0484C20.1756 13.4023 20.1243 13.7814 20.158 14.1578V17.4348H24.994L24.221 22.4758H20.163V34.6618C24.2646 34.0116 27.9996 31.9196 30.6966 28.7617C33.3936 25.6039 34.8755 21.5875 34.876 17.4348Z" fill="#616161"/>
</svg>
