<svg width="35" height="35" viewBox="0 0 35 35" fill="none" xmlns="http://www.w3.org/2000/svg">
<path d="M11.6677 27.3827C11.6677 27.5237 11.5057 27.6357 11.3017 27.6357C11.0697 27.6567 10.9077 27.5447 10.9077 27.3827C10.9077 27.2417 11.0697 27.1297 11.2737 27.1297C11.4847 27.1087 11.6677 27.2207 11.6677 27.3827ZM9.48066 27.0667C9.43166 27.2077 9.57166 27.3667 9.78066 27.4117C9.85745 27.4493 9.9458 27.4555 10.0271 27.4292C10.1084 27.4029 10.1764 27.3461 10.2167 27.2707C10.2587 27.1297 10.1257 26.9707 9.91666 26.9047C9.83655 26.876 9.74887 26.8765 9.6691 26.9062C9.58932 26.9358 9.52258 26.9927 9.48066 27.0667ZM12.5887 26.9467C12.3887 26.9957 12.2437 27.1297 12.2657 27.2917C12.2867 27.4327 12.4657 27.5237 12.6807 27.4747C12.8957 27.4257 13.0257 27.2917 13.0037 27.1517C12.9817 27.0117 12.7927 26.9257 12.5887 26.9467ZM17.2147 0.00373102C14.946 -0.0440028 12.691 0.366713 10.5849 1.21127C8.47876 2.05583 6.56478 3.31684 4.95762 4.91877C3.35047 6.5207 2.08322 8.43056 1.2318 10.5339C0.380386 12.6373 -0.0376757 14.8909 0.00266467 17.1597C-0.0267601 20.859 1.10839 24.4738 3.24735 27.4922C5.3863 30.5106 8.42065 32.7795 11.9207 33.9777C12.8207 34.1397 13.1367 33.5837 13.1367 33.1267C13.1367 32.6907 13.1157 30.2857 13.1157 28.8097C13.1157 28.8097 8.19366 29.8647 7.16066 26.7097C7.16066 26.7097 6.36066 24.6637 5.20566 24.1367C5.20566 24.1367 3.59566 23.0367 5.31866 23.0537C5.87985 23.1297 6.41619 23.3332 6.88662 23.6485C7.35704 23.9638 7.74906 24.3825 8.03266 24.8727C8.26736 25.3111 8.58762 25.6979 8.97449 26.0103C9.36135 26.3226 9.80696 26.5542 10.2849 26.6913C10.7629 26.8284 11.2635 26.8681 11.7571 26.8083C12.2507 26.7484 12.7273 26.5901 13.1587 26.3427C13.2494 25.4467 13.6468 24.6095 14.2837 23.9727C10.3537 23.5367 6.38366 22.9677 6.38366 16.2027C6.34455 15.4336 6.47261 14.6652 6.75901 13.9503C7.04541 13.2354 7.48335 12.5911 8.04266 12.0617C7.50953 10.5028 7.57475 8.80131 8.22566 7.28773C9.69566 6.83073 13.0777 9.18773 13.0777 9.18773C15.9674 8.39092 19.0189 8.39092 21.9087 9.18773C21.9087 9.18773 25.2907 6.82473 26.7607 7.28773C27.4119 8.80124 27.4771 10.5028 26.9437 12.0617C27.5239 12.5826 27.986 13.2217 28.2988 13.9359C28.6117 14.6501 28.7682 15.423 28.7577 16.2027C28.7577 22.9877 24.6167 23.5297 20.6857 23.9727C21.1093 24.3978 21.4359 24.9095 21.6431 25.4728C21.8502 26.036 21.933 26.6375 21.8857 27.2357C21.8857 29.6057 21.8647 32.5357 21.8647 33.1137C21.8647 33.5707 22.1877 34.1267 23.0807 33.9647C26.5693 32.7688 29.5899 30.4993 31.7096 27.4815C33.8293 24.4636 34.9393 20.8522 34.8807 17.1647C34.8777 7.40673 26.9677 0.00373102 17.2147 0.00373102ZM6.83666 24.2537C6.74566 24.3237 6.76666 24.4857 6.88566 24.6197C6.99866 24.7317 7.15966 24.7817 7.25166 24.6897C7.34266 24.6197 7.32166 24.4577 7.20266 24.3237C7.08966 24.2117 6.92866 24.1627 6.83666 24.2537ZM6.07766 23.6837C6.02866 23.7747 6.09866 23.8837 6.23966 23.9577C6.26228 23.975 6.28819 23.9875 6.3158 23.9944C6.34341 24.0013 6.37214 24.0025 6.40023 23.9979C6.42832 23.9933 6.45517 23.983 6.47915 23.9677C6.50313 23.9524 6.52372 23.9323 6.53966 23.9087C6.58866 23.8177 6.51866 23.7087 6.37766 23.6347C6.23966 23.5927 6.12666 23.6127 6.07766 23.6837ZM8.35566 26.1837C8.24266 26.2747 8.28566 26.4837 8.44666 26.6197C8.60866 26.7817 8.81266 26.8027 8.90366 26.6897C8.99466 26.5987 8.95267 26.3897 8.81266 26.2537C8.65767 26.0957 8.44766 26.0747 8.35566 26.1877V26.1837ZM7.55566 25.1497C7.44266 25.2197 7.44266 25.4027 7.55566 25.5647C7.66866 25.7267 7.85566 25.7967 7.94966 25.7267C8.00455 25.6674 8.03504 25.5896 8.03504 25.5087C8.03504 25.4279 8.00455 25.3501 7.94966 25.2907C7.84966 25.1327 7.66666 25.0627 7.55466 25.1537L7.55566 25.1497Z" fill="#616161"/>
</svg>
