<svg width="32" height="32" viewBox="0 0 32 32" fill="none" xmlns="http://www.w3.org/2000/svg">
<path d="M7.08696 31.5H0.555964V10.47H7.08696V31.5ZM3.81796 7.59996C3.06636 7.60351 2.33059 7.3841 1.7037 6.96947C1.0768 6.55483 0.586949 5.96361 0.296084 5.27057C0.00521845 4.57752 -0.0735914 3.81378 0.0696209 3.07594C0.212833 2.33811 0.571635 1.65931 1.10065 1.1254C1.62966 0.591491 2.30513 0.226452 3.04161 0.0764486C3.7781 -0.0735543 4.54253 -0.00178292 5.23823 0.282686C5.93392 0.567155 6.52963 1.05154 6.95002 1.67459C7.37041 2.29764 7.59659 3.03136 7.59996 3.78296C7.60079 4.78949 7.20371 5.75555 6.49526 6.47055C5.78682 7.18555 4.82446 7.59151 3.81796 7.59996ZM31.529 31.5H25.012V21.263C25.012 18.823 24.963 15.694 21.612 15.694C18.212 15.694 17.696 18.345 17.696 21.087V31.5H11.178V10.47H17.441V13.339H17.536C18.1618 12.2661 19.067 11.3832 20.1552 10.7844C21.2434 10.1856 22.4737 9.89341 23.715 9.93896C30.324 9.93896 31.539 14.291 31.539 19.944V31.5H31.529Z" fill="#616161"/>
</svg>
